<mxfile host="app.diagrams.net" modified="2024-06-07T13:05:31.362Z" agent="Mozilla/5.0 (Windows NT 10.0; Win64; x64) AppleWebKit/537.36 (KHTML, like Gecko) Chrome/125.0.0.0 Safari/537.36 Edg/125.0.0.0" etag="s_qK2yUoKFpPJ4nQYuWg" version="24.5.2" type="github">
  <diagram id="C5RBs43oDa-KdzZeNtuy" name="Page-1">
    <mxGraphModel dx="2151" dy="1698" grid="1" gridSize="10" guides="1" tooltips="1" connect="1" arrows="1" fold="1" page="1" pageScale="1" pageWidth="827" pageHeight="1169" math="0" shadow="0">
      <root>
        <mxCell id="WIyWlLk6GJQsqaUBKTNV-0" />
        <mxCell id="WIyWlLk6GJQsqaUBKTNV-1" parent="WIyWlLk6GJQsqaUBKTNV-0" />
        <mxCell id="-MSwqMsgfWWObhUc-Qrm-9" value="&lt;font style=&quot;font-size: 18px;&quot;&gt;User&lt;/font&gt;" style="swimlane;fontStyle=1;align=center;verticalAlign=top;childLayout=stackLayout;horizontal=1;startSize=30;horizontalStack=0;resizeParent=1;resizeParentMax=0;resizeLast=0;collapsible=1;marginBottom=0;whiteSpace=wrap;html=1;" parent="WIyWlLk6GJQsqaUBKTNV-1" vertex="1">
          <mxGeometry x="317" width="510" height="524" as="geometry" />
        </mxCell>
        <mxCell id="-MSwqMsgfWWObhUc-Qrm-10" value="&lt;span style=&quot;background-color: transparent; font-family: Arial, sans-serif; font-size: 11pt; white-space-collapse: preserve;&quot;&gt;+ name: string&lt;/span&gt;&lt;div&gt;&lt;span id=&quot;docs-internal-guid-4a276b5c-7fff-6518-7431-e0b5109f927a&quot;&gt;&lt;p style=&quot;line-height:1.38;margin-top:0pt;margin-bottom:0pt;&quot; dir=&quot;ltr&quot;&gt;&lt;span style=&quot;font-size: 11pt; font-family: Arial, sans-serif; background-color: transparent; font-variant-numeric: normal; font-variant-east-asian: normal; font-variant-alternates: normal; font-variant-position: normal; vertical-align: baseline; white-space-collapse: preserve;&quot;&gt;+ cpf: Long int&lt;/span&gt;&lt;/p&gt;&lt;p style=&quot;line-height:1.38;margin-top:0pt;margin-bottom:0pt;&quot; dir=&quot;ltr&quot;&gt;&lt;span style=&quot;font-size: 11pt; font-family: Arial, sans-serif; background-color: transparent; font-variant-numeric: normal; font-variant-east-asian: normal; font-variant-alternates: normal; font-variant-position: normal; vertical-align: baseline; white-space-collapse: preserve;&quot;&gt;+ email: string&amp;nbsp;&lt;/span&gt;&lt;/p&gt;&lt;p style=&quot;line-height:1.38;margin-top:0pt;margin-bottom:0pt;&quot; dir=&quot;ltr&quot;&gt;&lt;span style=&quot;font-size: 11pt; font-family: Arial, sans-serif; background-color: transparent; font-variant-numeric: normal; font-variant-east-asian: normal; font-variant-alternates: normal; font-variant-position: normal; vertical-align: baseline; white-space-collapse: preserve;&quot;&gt;+ password: string&lt;/span&gt;&lt;/p&gt;&lt;p style=&quot;line-height:1.38;margin-top:0pt;margin-bottom:0pt;&quot; dir=&quot;ltr&quot;&gt;&lt;span style=&quot;font-size: 11pt; font-family: Arial, sans-serif; background-color: transparent; font-variant-numeric: normal; font-variant-east-asian: normal; font-variant-alternates: normal; font-variant-position: normal; vertical-align: baseline; white-space-collapse: preserve;&quot;&gt;+ flight tickets: Flight&amp;nbsp;&lt;/span&gt;&lt;/p&gt;&lt;p style=&quot;line-height:1.38;margin-top:0pt;margin-bottom:0pt;&quot; dir=&quot;ltr&quot;&gt;&lt;span style=&quot;font-size: 11pt; font-family: Arial, sans-serif; background-color: transparent; font-variant-numeric: normal; font-variant-east-asian: normal; font-variant-alternates: normal; font-variant-position: normal; vertical-align: baseline; white-space-collapse: preserve;&quot;&gt;+ creditcard: long int&amp;nbsp; &lt;/span&gt;&lt;/p&gt;&lt;div&gt;&lt;span style=&quot;font-size: 11pt; font-family: Arial, sans-serif; background-color: transparent; font-variant-numeric: normal; font-variant-east-asian: normal; font-variant-alternates: normal; font-variant-position: normal; vertical-align: baseline; white-space-collapse: preserve;&quot;&gt;&lt;br&gt;&lt;/span&gt;&lt;/div&gt;&lt;/span&gt;&lt;/div&gt;" style="text;strokeColor=none;fillColor=none;align=left;verticalAlign=top;spacingLeft=4;spacingRight=4;overflow=hidden;rotatable=0;points=[[0,0.5],[1,0.5]];portConstraint=eastwest;whiteSpace=wrap;html=1;" parent="-MSwqMsgfWWObhUc-Qrm-9" vertex="1">
          <mxGeometry y="30" width="510" height="134" as="geometry" />
        </mxCell>
        <mxCell id="-MSwqMsgfWWObhUc-Qrm-11" value="" style="line;strokeWidth=1;fillColor=none;align=left;verticalAlign=middle;spacingTop=-1;spacingLeft=3;spacingRight=3;rotatable=0;labelPosition=right;points=[];portConstraint=eastwest;strokeColor=inherit;" parent="-MSwqMsgfWWObhUc-Qrm-9" vertex="1">
          <mxGeometry y="164" width="510" height="8" as="geometry" />
        </mxCell>
        <mxCell id="-MSwqMsgfWWObhUc-Qrm-12" value="&lt;span id=&quot;docs-internal-guid-cbe20a94-7fff-af77-9a3e-088579be6846&quot;&gt;&lt;p style=&quot;line-height:1.38;margin-top:0pt;margin-bottom:0pt;&quot; dir=&quot;ltr&quot;&gt;&lt;span style=&quot;font-size: 11pt; font-family: Arial, sans-serif; background-color: transparent; font-variant-numeric: normal; font-variant-east-asian: normal; font-variant-alternates: normal; font-variant-position: normal; vertical-align: baseline; white-space-collapse: preserve;&quot;&gt;&lt;span style=&quot;font-size: 14.6667px; background-color: initial;&quot;&gt;+ &lt;/span&gt;addName (string): void&amp;nbsp;&lt;/span&gt;&lt;/p&gt;&lt;p style=&quot;line-height:1.38;margin-top:0pt;margin-bottom:0pt;&quot; dir=&quot;ltr&quot;&gt;&lt;span style=&quot;font-size: 11pt; font-family: Arial, sans-serif; background-color: transparent; font-variant-numeric: normal; font-variant-east-asian: normal; font-variant-alternates: normal; font-variant-position: normal; vertical-align: baseline; white-space-collapse: preserve;&quot;&gt;&lt;span style=&quot;font-size: 14.6667px; background-color: initial;&quot;&gt;+&lt;/span&gt;&amp;nbsp;changeName (string): void&lt;/span&gt;&lt;/p&gt;&lt;p style=&quot;line-height:1.38;margin-top:0pt;margin-bottom:0pt;&quot; dir=&quot;ltr&quot;&gt;&lt;span style=&quot;font-size: 11pt; font-family: Arial, sans-serif; background-color: transparent; font-variant-numeric: normal; font-variant-east-asian: normal; font-variant-alternates: normal; font-variant-position: normal; vertical-align: baseline; white-space-collapse: preserve;&quot;&gt;&lt;span style=&quot;font-size: 14.6667px; background-color: initial;&quot;&gt;+ &lt;/span&gt;addCpf (long int):&amp;nbsp;void&lt;/span&gt;&lt;/p&gt;&lt;p style=&quot;line-height:1.38;margin-top:0pt;margin-bottom:0pt;&quot; dir=&quot;ltr&quot;&gt;&lt;span style=&quot;font-size: 11pt; font-family: Arial, sans-serif; background-color: transparent; font-variant-numeric: normal; font-variant-east-asian: normal; font-variant-alternates: normal; font-variant-position: normal; vertical-align: baseline; white-space-collapse: preserve;&quot;&gt;&lt;span style=&quot;font-size: 14.6667px; background-color: initial;&quot;&gt;+ &lt;/span&gt;addEmail(string):&amp;nbsp;void&lt;/span&gt;&lt;/p&gt;&lt;p style=&quot;line-height:1.38;margin-top:0pt;margin-bottom:0pt;&quot; dir=&quot;ltr&quot;&gt;&lt;span style=&quot;font-family: Arial, sans-serif; font-size: 14.6667px; white-space-collapse: preserve; background-color: initial;&quot;&gt;+ &lt;/span&gt;&lt;span style=&quot;background-color: transparent; font-family: Arial, sans-serif; font-size: 11pt; white-space-collapse: preserve;&quot;&gt;changeEmail( string):&amp;nbsp;void&lt;/span&gt;&lt;/p&gt;&lt;p style=&quot;line-height:1.38;margin-top:0pt;margin-bottom:0pt;&quot; dir=&quot;ltr&quot;&gt;&lt;span style=&quot;font-size: 11pt; font-family: Arial, sans-serif; background-color: transparent; font-variant-numeric: normal; font-variant-east-asian: normal; font-variant-alternates: normal; font-variant-position: normal; vertical-align: baseline; white-space-collapse: preserve;&quot;&gt;&lt;span style=&quot;font-size: 14.6667px; background-color: initial;&quot;&gt;+ &lt;/span&gt;addPassword (string): void&lt;/span&gt;&lt;/p&gt;&lt;p style=&quot;line-height:1.38;margin-top:0pt;margin-bottom:0pt;&quot; dir=&quot;ltr&quot;&gt;&lt;span style=&quot;font-size: 11pt; font-family: Arial, sans-serif; background-color: transparent; font-variant-numeric: normal; font-variant-east-asian: normal; font-variant-alternates: normal; font-variant-position: normal; vertical-align: baseline; white-space-collapse: preserve;&quot;&gt;&lt;span style=&quot;font-size: 14.6667px; background-color: initial;&quot;&gt;+ &lt;/span&gt;changePassword (string, string): void&amp;nbsp;&lt;/span&gt;&lt;/p&gt;&lt;p style=&quot;line-height:1.38;margin-top:0pt;margin-bottom:0pt;&quot; dir=&quot;ltr&quot;&gt;&lt;span style=&quot;font-size: 11pt; font-family: Arial, sans-serif; background-color: transparent; font-variant-numeric: normal; font-variant-east-asian: normal; font-variant-alternates: normal; font-variant-position: normal; vertical-align: baseline; white-space-collapse: preserve;&quot;&gt;&lt;span style=&quot;font-size: 14.6667px; background-color: initial;&quot;&gt;+ &lt;/span&gt;add CreditCard (long int):&amp;nbsp;void&lt;/span&gt;&lt;/p&gt;&lt;p style=&quot;line-height:1.38;margin-top:0pt;margin-bottom:0pt;&quot; dir=&quot;ltr&quot;&gt;&lt;span style=&quot;font-size: 11pt; font-family: Arial, sans-serif; background-color: transparent; font-variant-numeric: normal; font-variant-east-asian: normal; font-variant-alternates: normal; font-variant-position: normal; vertical-align: baseline; white-space-collapse: preserve;&quot;&gt;&lt;span style=&quot;font-size: 14.6667px; background-color: initial;&quot;&gt;+ &lt;/span&gt;checkTickets(): &lt;/span&gt;&lt;/p&gt;&lt;p style=&quot;line-height:1.38;margin-top:0pt;margin-bottom:0pt;&quot; dir=&quot;ltr&quot;&gt;&lt;span style=&quot;font-size: 11pt; font-family: Arial, sans-serif; background-color: transparent; font-variant-numeric: normal; font-variant-east-asian: normal; font-variant-alternates: normal; font-variant-position: normal; vertical-align: baseline; white-space-collapse: preserve;&quot;&gt;&lt;span style=&quot;font-size: 14.6667px; background-color: initial;&quot;&gt;+ &lt;/span&gt;cancelTicket (string flight, int hour, int minutes, int seat): void&lt;/span&gt;&lt;/p&gt;&lt;p style=&quot;line-height:1.38;margin-top:0pt;margin-bottom:0pt;&quot; dir=&quot;ltr&quot;&gt;&lt;span style=&quot;font-size: 11pt; font-family: Arial, sans-serif; background-color: transparent; font-variant-numeric: normal; font-variant-east-asian: normal; font-variant-alternates: normal; font-variant-position: normal; vertical-align: baseline; white-space-collapse: preserve;&quot;&gt;&lt;span style=&quot;font-size: 14.6667px; background-color: initial;&quot;&gt;+ &lt;/span&gt;buyTicket (string origin, string destination, int hour, int min, int seat):&amp;nbsp;void&amp;nbsp;&amp;nbsp;&amp;nbsp;&lt;/span&gt;&lt;/p&gt;&lt;p style=&quot;line-height:1.38;margin-top:0pt;margin-bottom:0pt;&quot; dir=&quot;ltr&quot;&gt;&lt;span style=&quot;font-size: 11pt; font-family: Arial, sans-serif; background-color: transparent; font-variant-numeric: normal; font-variant-east-asian: normal; font-variant-alternates: normal; font-variant-position: normal; vertical-align: baseline; white-space-collapse: preserve;&quot;&gt;&lt;span style=&quot;font-size: 14.6667px; background-color: initial;&quot;&gt;+ &lt;/span&gt;checkName(string name): &lt;/span&gt;&lt;/p&gt;&lt;p style=&quot;line-height:1.38;margin-top:0pt;margin-bottom:0pt;&quot; dir=&quot;ltr&quot;&gt;&lt;span style=&quot;font-size: 11pt; font-family: Arial, sans-serif; background-color: transparent; font-variant-numeric: normal; font-variant-east-asian: normal; font-variant-alternates: normal; font-variant-position: normal; vertical-align: baseline; white-space-collapse: preserve;&quot;&gt;&lt;span style=&quot;font-size: 14.6667px; background-color: initial;&quot;&gt;+ &lt;/span&gt;checkPassword(string password): &amp;nbsp;&amp;nbsp;&amp;nbsp;&lt;/span&gt;&lt;/p&gt;&lt;p style=&quot;line-height:1.38;margin-top:0pt;margin-bottom:0pt;&quot; dir=&quot;ltr&quot;&gt;&lt;span style=&quot;font-size: 11pt; font-family: Arial, sans-serif; background-color: transparent; font-variant-numeric: normal; font-variant-east-asian: normal; font-variant-alternates: normal; font-variant-position: normal; vertical-align: baseline; white-space-collapse: preserve;&quot;&gt;&lt;span style=&quot;font-size: 14.6667px; background-color: initial;&quot;&gt;+ &lt;/span&gt;checkCpf(long int cpf):&amp;nbsp;&lt;/span&gt;&lt;/p&gt;&lt;p style=&quot;line-height:1.38;margin-top:0pt;margin-bottom:0pt;&quot; dir=&quot;ltr&quot;&gt;&lt;span style=&quot;font-size: 11pt; font-family: Arial, sans-serif; background-color: transparent; font-variant-numeric: normal; font-variant-east-asian: normal; font-variant-alternates: normal; font-variant-position: normal; vertical-align: baseline; white-space-collapse: preserve;&quot;&gt;&lt;span style=&quot;font-size: 14.6667px; background-color: initial;&quot;&gt;+ &lt;/span&gt;returnprofile(): &lt;/span&gt;&lt;/p&gt;&lt;p style=&quot;line-height:1.38;margin-top:0pt;margin-bottom:0pt;&quot; dir=&quot;ltr&quot;&gt;&lt;span style=&quot;font-family: Arial, sans-serif; font-size: 14.6667px; white-space-collapse: preserve; background-color: initial;&quot;&gt;+ &lt;/span&gt;&lt;span style=&quot;background-color: transparent; font-family: Arial, sans-serif; font-size: 11pt; white-space-collapse: preserve;&quot;&gt;perfil():&amp;nbsp;void&lt;/span&gt;&lt;/p&gt;&lt;div&gt;&lt;span style=&quot;font-size: 11pt; font-family: Arial, sans-serif; background-color: transparent; font-variant-numeric: normal; font-variant-east-asian: normal; font-variant-alternates: normal; font-variant-position: normal; vertical-align: baseline; white-space-collapse: preserve;&quot;&gt;&lt;br&gt;&lt;/span&gt;&lt;/div&gt;&lt;/span&gt;" style="text;strokeColor=none;fillColor=none;align=left;verticalAlign=top;spacingLeft=4;spacingRight=4;overflow=hidden;rotatable=0;points=[[0,0.5],[1,0.5]];portConstraint=eastwest;whiteSpace=wrap;html=1;" parent="-MSwqMsgfWWObhUc-Qrm-9" vertex="1">
          <mxGeometry y="172" width="510" height="352" as="geometry" />
        </mxCell>
        <mxCell id="-MSwqMsgfWWObhUc-Qrm-13" value="&lt;font style=&quot;font-size: 18px;&quot;&gt;UserManager&lt;/font&gt;" style="swimlane;fontStyle=1;align=center;verticalAlign=top;childLayout=stackLayout;horizontal=1;startSize=30;horizontalStack=0;resizeParent=1;resizeParentMax=0;resizeLast=0;collapsible=1;marginBottom=0;whiteSpace=wrap;html=1;" parent="WIyWlLk6GJQsqaUBKTNV-1" vertex="1">
          <mxGeometry x="310" y="-430" width="340" height="370" as="geometry" />
        </mxCell>
        <mxCell id="-MSwqMsgfWWObhUc-Qrm-14" value="&lt;div&gt;&lt;font style=&quot;font-size: 14px;&quot;&gt;&lt;br&gt;&lt;/font&gt;&lt;/div&gt;&lt;font style=&quot;font-size: 14px;&quot;&gt;+&amp;nbsp;users(vector&amp;lt;user&amp;gt;):&amp;nbsp;&lt;/font&gt;" style="text;strokeColor=none;fillColor=none;align=left;verticalAlign=top;spacingLeft=4;spacingRight=4;overflow=hidden;rotatable=0;points=[[0,0.5],[1,0.5]];portConstraint=eastwest;whiteSpace=wrap;html=1;" parent="-MSwqMsgfWWObhUc-Qrm-13" vertex="1">
          <mxGeometry y="30" width="340" height="64" as="geometry" />
        </mxCell>
        <mxCell id="-MSwqMsgfWWObhUc-Qrm-15" value="" style="line;strokeWidth=1;fillColor=none;align=left;verticalAlign=middle;spacingTop=-1;spacingLeft=3;spacingRight=3;rotatable=0;labelPosition=right;points=[];portConstraint=eastwest;strokeColor=inherit;" parent="-MSwqMsgfWWObhUc-Qrm-13" vertex="1">
          <mxGeometry y="94" width="340" height="8" as="geometry" />
        </mxCell>
        <mxCell id="-MSwqMsgfWWObhUc-Qrm-16" value="&lt;span id=&quot;docs-internal-guid-5efa8054-7fff-d6ee-ad45-9c4549e399de&quot;&gt;&lt;p style=&quot;line-height:1.38;margin-top:0pt;margin-bottom:0pt;&quot; dir=&quot;ltr&quot;&gt;&lt;span style=&quot;font-family: Arial, sans-serif; background-color: transparent; font-variant-numeric: normal; font-variant-east-asian: normal; font-variant-alternates: normal; font-variant-position: normal; vertical-align: baseline; white-space-collapse: preserve;&quot;&gt;&lt;font style=&quot;font-size: 14px;&quot;&gt;+UserManager(FlightManager&amp;amp; System):&lt;/font&gt;&lt;/span&gt;&lt;/p&gt;&lt;p style=&quot;line-height:1.38;margin-top:0pt;margin-bottom:0pt;&quot; dir=&quot;ltr&quot;&gt;&lt;span style=&quot;font-family: Arial, sans-serif; background-color: transparent; font-variant-numeric: normal; font-variant-east-asian: normal; font-variant-alternates: normal; font-variant-position: normal; vertical-align: baseline; white-space-collapse: preserve;&quot;&gt;&lt;font size=&quot;3&quot; style=&quot;&quot;&gt;&amp;nbsp;&lt;/font&gt;&lt;/span&gt;&lt;/p&gt;&lt;p style=&quot;line-height:1.38;margin-top:0pt;margin-bottom:0pt;&quot; dir=&quot;ltr&quot;&gt;&lt;span style=&quot;font-family: Arial, sans-serif; background-color: transparent; font-variant-numeric: normal; font-variant-east-asian: normal; font-variant-alternates: normal; font-variant-position: normal; vertical-align: baseline; white-space-collapse: preserve;&quot;&gt;&lt;font size=&quot;3&quot; style=&quot;&quot;&gt;+addUser(user&amp;amp; passenger):&lt;/font&gt;&lt;/span&gt;&lt;/p&gt;&lt;p style=&quot;line-height:1.38;margin-top:0pt;margin-bottom:0pt;&quot; dir=&quot;ltr&quot;&gt;&lt;span style=&quot;font-family: Arial, sans-serif; background-color: transparent; font-variant-numeric: normal; font-variant-east-asian: normal; font-variant-alternates: normal; font-variant-position: normal; vertical-align: baseline; white-space-collapse: preserve;&quot;&gt;&lt;font size=&quot;3&quot; style=&quot;&quot;&gt;&lt;br&gt;&lt;/font&gt;&lt;/span&gt;&lt;/p&gt;&lt;p style=&quot;line-height:1.38;margin-top:0pt;margin-bottom:0pt;&quot; dir=&quot;ltr&quot;&gt;&lt;span style=&quot;font-family: Arial, sans-serif; background-color: transparent; font-variant-numeric: normal; font-variant-east-asian: normal; font-variant-alternates: normal; font-variant-position: normal; vertical-align: baseline; white-space-collapse: preserve;&quot;&gt;&lt;font size=&quot;3&quot; style=&quot;&quot;&gt;+returnUser(string name, string password):&amp;nbsp;&lt;/font&gt;&lt;/span&gt;&lt;/p&gt;&lt;p style=&quot;line-height:1.38;margin-top:0pt;margin-bottom:0pt;&quot; dir=&quot;ltr&quot;&gt;&lt;span style=&quot;font-family: Arial, sans-serif; background-color: transparent; font-variant-numeric: normal; font-variant-east-asian: normal; font-variant-alternates: normal; font-variant-position: normal; vertical-align: baseline; white-space-collapse: preserve;&quot;&gt;&lt;font size=&quot;3&quot; style=&quot;&quot;&gt;&lt;br&gt;&lt;/font&gt;&lt;/span&gt;&lt;/p&gt;&lt;p style=&quot;line-height:1.38;margin-top:0pt;margin-bottom:0pt;&quot; dir=&quot;ltr&quot;&gt;&lt;span style=&quot;font-family: Arial, sans-serif; background-color: transparent; font-variant-numeric: normal; font-variant-east-asian: normal; font-variant-alternates: normal; font-variant-position: normal; vertical-align: baseline; white-space-collapse: preserve;&quot;&gt;&lt;font size=&quot;3&quot; style=&quot;&quot;&gt;+UpdatePassenger():&amp;nbsp;&lt;/font&gt;&lt;/span&gt;&lt;/p&gt;&lt;p style=&quot;line-height:1.38;margin-top:0pt;margin-bottom:0pt;&quot; dir=&quot;ltr&quot;&gt;&lt;span style=&quot;font-family: Arial, sans-serif; background-color: transparent; font-variant-numeric: normal; font-variant-east-asian: normal; font-variant-alternates: normal; font-variant-position: normal; vertical-align: baseline; white-space-collapse: preserve;&quot;&gt;&lt;font size=&quot;3&quot; style=&quot;&quot;&gt;&lt;br&gt;&lt;/font&gt;&lt;/span&gt;&lt;/p&gt;&lt;p style=&quot;line-height:1.38;margin-top:0pt;margin-bottom:0pt;&quot; dir=&quot;ltr&quot;&gt;&lt;span style=&quot;font-family: Arial, sans-serif; background-color: transparent; font-variant-numeric: normal; font-variant-east-asian: normal; font-variant-alternates: normal; font-variant-position: normal; vertical-align: baseline; white-space-collapse: preserve;&quot;&gt;&lt;font size=&quot;3&quot; style=&quot;&quot;&gt;+validName(string name):&amp;nbsp;&lt;/font&gt;&lt;/span&gt;&lt;/p&gt;&lt;p style=&quot;line-height:1.38;margin-top:0pt;margin-bottom:0pt;&quot; dir=&quot;ltr&quot;&gt;&lt;span style=&quot;font-family: Arial, sans-serif; background-color: transparent; font-variant-numeric: normal; font-variant-east-asian: normal; font-variant-alternates: normal; font-variant-position: normal; vertical-align: baseline; white-space-collapse: preserve;&quot;&gt;&lt;font size=&quot;3&quot; style=&quot;&quot;&gt;&lt;br&gt;&lt;/font&gt;&lt;/span&gt;&lt;/p&gt;&lt;p style=&quot;line-height:1.38;margin-top:0pt;margin-bottom:0pt;&quot; dir=&quot;ltr&quot;&gt;&lt;span style=&quot;font-family: Arial, sans-serif; background-color: transparent; font-variant-numeric: normal; font-variant-east-asian: normal; font-variant-alternates: normal; font-variant-position: normal; vertical-align: baseline; white-space-collapse: preserve;&quot;&gt;&lt;font size=&quot;3&quot; style=&quot;&quot;&gt;+validPassword(string name, string password):&lt;/font&gt;&lt;/span&gt;&lt;/p&gt;&lt;div&gt;&lt;span style=&quot;font-size: 11pt; font-family: Arial, sans-serif; background-color: transparent; font-variant-numeric: normal; font-variant-east-asian: normal; font-variant-alternates: normal; font-variant-position: normal; vertical-align: baseline; white-space-collapse: preserve;&quot;&gt;&lt;br&gt;&lt;/span&gt;&lt;/div&gt;&lt;/span&gt;" style="text;strokeColor=none;fillColor=none;align=left;verticalAlign=top;spacingLeft=4;spacingRight=4;overflow=hidden;rotatable=0;points=[[0,0.5],[1,0.5]];portConstraint=eastwest;whiteSpace=wrap;html=1;" parent="-MSwqMsgfWWObhUc-Qrm-13" vertex="1">
          <mxGeometry y="102" width="340" height="268" as="geometry" />
        </mxCell>
        <mxCell id="-MSwqMsgfWWObhUc-Qrm-18" value="&lt;font style=&quot;font-size: 18px;&quot;&gt;Flight&lt;/font&gt;" style="swimlane;fontStyle=1;align=center;verticalAlign=top;childLayout=stackLayout;horizontal=1;startSize=30;horizontalStack=0;resizeParent=1;resizeParentMax=0;resizeLast=0;collapsible=1;marginBottom=0;whiteSpace=wrap;html=1;" parent="WIyWlLk6GJQsqaUBKTNV-1" vertex="1">
          <mxGeometry x="-80" width="340" height="600" as="geometry" />
        </mxCell>
        <mxCell id="-MSwqMsgfWWObhUc-Qrm-19" value="&lt;div&gt;&lt;font style=&quot;font-size: 14px;&quot;&gt;+Origin : string&lt;/font&gt;&lt;/div&gt;&lt;div&gt;&lt;font style=&quot;font-size: 14px;&quot;&gt;&lt;br&gt;&lt;/font&gt;&lt;/div&gt;&lt;div&gt;&lt;span style=&quot;white-space: normal;&quot;&gt;&lt;font style=&quot;font-size: 14px;&quot;&gt;+Destination : string&amp;nbsp;&lt;/font&gt;&lt;/span&gt;&lt;/div&gt;&lt;div&gt;&lt;span style=&quot;white-space: normal;&quot;&gt;&lt;font style=&quot;font-size: 14px;&quot;&gt;&lt;br&gt;&lt;/font&gt;&lt;/span&gt;&lt;/div&gt;&lt;div&gt;&lt;span style=&quot;white-space: normal;&quot;&gt;&lt;font style=&quot;font-size: 14px;&quot;&gt;+Hour : int&lt;/font&gt;&lt;/span&gt;&lt;/div&gt;&lt;div&gt;&lt;span style=&quot;white-space: normal;&quot;&gt;&lt;font style=&quot;font-size: 14px;&quot;&gt;&lt;br&gt;&lt;/font&gt;&lt;/span&gt;&lt;/div&gt;&lt;div&gt;&lt;span style=&quot;white-space: normal;&quot;&gt;&lt;font style=&quot;font-size: 14px;&quot;&gt;+Price : double&amp;nbsp;&lt;/font&gt;&lt;/span&gt;&lt;/div&gt;&lt;div&gt;&lt;span style=&quot;white-space: normal;&quot;&gt;&lt;font style=&quot;font-size: 14px;&quot;&gt;&lt;br&gt;&lt;/font&gt;&lt;/span&gt;&lt;/div&gt;&lt;div&gt;&lt;span style=&quot;white-space: normal;&quot;&gt;&lt;font style=&quot;font-size: 14px;&quot;&gt;+Seats : int&amp;nbsp;&lt;/font&gt;&lt;/span&gt;&lt;/div&gt;&lt;div&gt;&lt;span style=&quot;white-space: normal;&quot;&gt;&lt;font style=&quot;font-size: 14px;&quot;&gt;&lt;br&gt;&lt;/font&gt;&lt;/span&gt;&lt;/div&gt;&lt;div&gt;&lt;span style=&quot;white-space: normal;&quot;&gt;&lt;font style=&quot;font-size: 14px;&quot;&gt;+Seat : vector&amp;lt;bool&amp;gt;&lt;/font&gt;&lt;/span&gt;&lt;/div&gt;" style="text;strokeColor=none;fillColor=none;align=left;verticalAlign=top;spacingLeft=4;spacingRight=4;overflow=hidden;rotatable=0;points=[[0,0.5],[1,0.5]];portConstraint=eastwest;whiteSpace=wrap;html=1;" parent="-MSwqMsgfWWObhUc-Qrm-18" vertex="1">
          <mxGeometry y="30" width="340" height="194" as="geometry" />
        </mxCell>
        <mxCell id="-MSwqMsgfWWObhUc-Qrm-20" value="" style="line;strokeWidth=1;fillColor=none;align=left;verticalAlign=middle;spacingTop=-1;spacingLeft=3;spacingRight=3;rotatable=0;labelPosition=right;points=[];portConstraint=eastwest;strokeColor=inherit;" parent="-MSwqMsgfWWObhUc-Qrm-18" vertex="1">
          <mxGeometry y="224" width="340" height="8" as="geometry" />
        </mxCell>
        <mxCell id="-MSwqMsgfWWObhUc-Qrm-21" value="&lt;div&gt;&lt;font style=&quot;&quot;&gt;&lt;span style=&quot;&quot; id=&quot;docs-internal-guid-0a34e0a3-7fff-589c-297a-951f679a391c&quot;&gt;&lt;p style=&quot;line-height: 1.38; margin-top: 0pt; margin-bottom: 0pt;&quot; dir=&quot;ltr&quot;&gt;&lt;span style=&quot;background-color: transparent; font-variant-numeric: normal; font-variant-east-asian: normal; font-variant-alternates: normal; font-variant-position: normal; vertical-align: baseline; white-space-collapse: preserve;&quot;&gt;&lt;font face=&quot;Helvetica&quot; style=&quot;font-size: 14px;&quot;&gt;+addOriginCity (string ):&amp;nbsp;&lt;/font&gt;&lt;/span&gt;&lt;/p&gt;&lt;p style=&quot;line-height: 1.38; margin-top: 0pt; margin-bottom: 0pt;&quot; dir=&quot;ltr&quot;&gt;&lt;span style=&quot;font-family: Arial, sans-serif; background-color: transparent; font-variant-numeric: normal; font-variant-east-asian: normal; font-variant-alternates: normal; font-variant-position: normal; vertical-align: baseline; white-space-collapse: preserve;&quot;&gt;&lt;font size=&quot;3&quot;&gt;+addOriginCountry (string):&lt;/font&gt;&lt;/span&gt;&lt;/p&gt;&lt;p style=&quot;line-height: 1.38; margin-top: 0pt; margin-bottom: 0pt;&quot; dir=&quot;ltr&quot;&gt;&lt;span style=&quot;font-family: Arial, sans-serif; background-color: transparent; font-variant-numeric: normal; font-variant-east-asian: normal; font-variant-alternates: normal; font-variant-position: normal; vertical-align: baseline; white-space-collapse: preserve;&quot;&gt;&lt;font size=&quot;3&quot;&gt;+origin():&amp;nbsp;&lt;/font&gt;&lt;/span&gt;&lt;/p&gt;&lt;p style=&quot;line-height: 1.38; margin-top: 0pt; margin-bottom: 0pt;&quot; dir=&quot;ltr&quot;&gt;&lt;font size=&quot;3&quot;&gt;&lt;span style=&quot;font-family: Arial, sans-serif; background-color: transparent; font-variant-numeric: normal; font-variant-east-asian: normal; font-variant-alternates: normal; font-variant-position: normal; vertical-align: baseline; white-space-collapse: preserve;&quot;&gt;+addDestinationCity (string ):&lt;/span&gt;&lt;span style=&quot;font-family: Arial, sans-serif; background-color: transparent; font-variant-numeric: normal; font-variant-east-asian: normal; font-variant-alternates: normal; font-variant-position: normal; vertical-align: baseline; white-space-collapse: preserve;&quot;&gt;&lt;span style=&quot;text-wrap: nowrap;&quot; class=&quot;Apple-tab-span&quot;&gt;&#x9;&lt;/span&gt;&lt;/span&gt;&lt;/font&gt;&lt;/p&gt;&lt;p style=&quot;line-height: 1.38; margin-top: 0pt; margin-bottom: 0pt;&quot; dir=&quot;ltr&quot;&gt;&lt;span style=&quot;font-family: Arial, sans-serif; background-color: transparent; font-variant-numeric: normal; font-variant-east-asian: normal; font-variant-alternates: normal; font-variant-position: normal; vertical-align: baseline; white-space-collapse: preserve;&quot;&gt;&lt;font size=&quot;3&quot;&gt;+addDestinationCountry(string):&amp;nbsp;&lt;/font&gt;&lt;/span&gt;&lt;/p&gt;&lt;p style=&quot;line-height: 1.38; margin-top: 0pt; margin-bottom: 0pt;&quot; dir=&quot;ltr&quot;&gt;&lt;font size=&quot;3&quot;&gt;&lt;span style=&quot;font-family: Arial, sans-serif; background-color: transparent; font-variant-numeric: normal; font-variant-east-asian: normal; font-variant-alternates: normal; font-variant-position: normal; vertical-align: baseline; white-space-collapse: preserve;&quot;&gt;+addTimeHour (int ):&amp;nbsp; &lt;/span&gt;&lt;span style=&quot;font-family: Arial, sans-serif; background-color: transparent; font-variant-numeric: normal; font-variant-east-asian: normal; font-variant-alternates: normal; font-variant-position: normal; vertical-align: baseline; white-space-collapse: preserve;&quot;&gt;&lt;span style=&quot;text-wrap: nowrap;&quot; class=&quot;Apple-tab-span&quot;&gt;&#x9;&lt;/span&gt;&lt;/span&gt;&lt;/font&gt;&lt;/p&gt;&lt;p style=&quot;line-height: 1.38; margin-top: 0pt; margin-bottom: 0pt;&quot; dir=&quot;ltr&quot;&gt;&lt;span style=&quot;font-family: Arial, sans-serif; background-color: transparent; font-variant-numeric: normal; font-variant-east-asian: normal; font-variant-alternates: normal; font-variant-position: normal; vertical-align: baseline; white-space-collapse: preserve;&quot;&gt;&lt;font size=&quot;3&quot;&gt;+addTimeMinute (int):&amp;nbsp;&lt;/font&gt;&lt;/span&gt;&lt;/p&gt;&lt;p style=&quot;line-height: 1.38; margin-top: 0pt; margin-bottom: 0pt;&quot; dir=&quot;ltr&quot;&gt;&lt;span style=&quot;font-family: Arial, sans-serif; background-color: transparent; font-variant-numeric: normal; font-variant-east-asian: normal; font-variant-alternates: normal; font-variant-position: normal; vertical-align: baseline; white-space-collapse: preserve;&quot;&gt;&lt;font size=&quot;3&quot;&gt;+time():&amp;nbsp;&lt;/font&gt;&lt;/span&gt;&lt;/p&gt;&lt;p style=&quot;line-height: 1.38; margin-top: 0pt; margin-bottom: 0pt;&quot; dir=&quot;ltr&quot;&gt;&lt;span style=&quot;font-family: Arial, sans-serif; background-color: transparent; font-variant-numeric: normal; font-variant-east-asian: normal; font-variant-alternates: normal; font-variant-position: normal; vertical-align: baseline; white-space-collapse: preserve;&quot;&gt;&lt;font size=&quot;3&quot;&gt;+addPrice (double):&amp;nbsp;&lt;/font&gt;&lt;/span&gt;&lt;/p&gt;&lt;p style=&quot;line-height: 1.38; margin-top: 0pt; margin-bottom: 0pt;&quot; dir=&quot;ltr&quot;&gt;&lt;span style=&quot;font-family: Arial, sans-serif; background-color: transparent; font-variant-numeric: normal; font-variant-east-asian: normal; font-variant-alternates: normal; font-variant-position: normal; vertical-align: baseline; white-space-collapse: preserve;&quot;&gt;&lt;font size=&quot;3&quot;&gt;+addSeat (int q):&amp;nbsp;&lt;/font&gt;&lt;/span&gt;&lt;/p&gt;&lt;p style=&quot;line-height: 1.38; margin-top: 0pt; margin-bottom: 0pt;&quot; dir=&quot;ltr&quot;&gt;&lt;span style=&quot;font-family: Arial, sans-serif; background-color: transparent; font-variant-numeric: normal; font-variant-east-asian: normal; font-variant-alternates: normal; font-variant-position: normal; vertical-align: baseline; white-space-collapse: preserve;&quot;&gt;&lt;font size=&quot;3&quot;&gt;+seatCheck(int n, string name):&amp;nbsp;&lt;/font&gt;&lt;/span&gt;&lt;/p&gt;&lt;p style=&quot;line-height: 1.38; margin-top: 0pt; margin-bottom: 0pt;&quot; dir=&quot;ltr&quot;&gt;&lt;font size=&quot;3&quot;&gt;&lt;span style=&quot;font-family: Arial, sans-serif; background-color: transparent; font-variant-numeric: normal; font-variant-east-asian: normal; font-variant-alternates: normal; font-variant-position: normal; vertical-align: baseline; white-space-collapse: preserve;&quot;&gt;+flightCheck(int codigo): &lt;/span&gt;&lt;span style=&quot;font-family: Arial, sans-serif; background-color: transparent; font-variant-numeric: normal; font-variant-east-asian: normal; font-variant-alternates: normal; font-variant-position: normal; vertical-align: baseline; white-space-collapse: preserve;&quot;&gt;&lt;span style=&quot;text-wrap: nowrap;&quot; class=&quot;Apple-tab-span&quot;&gt;&#x9;&lt;/span&gt;&lt;/span&gt;&lt;/font&gt;&lt;/p&gt;&lt;p style=&quot;line-height: 1.38; margin-top: 0pt; margin-bottom: 0pt;&quot; dir=&quot;ltr&quot;&gt;&lt;font size=&quot;3&quot;&gt;&lt;span style=&quot;font-family: Arial, sans-serif; background-color: transparent; font-variant-numeric: normal; font-variant-east-asian: normal; font-variant-alternates: normal; font-variant-position: normal; vertical-align: baseline; white-space-collapse: preserve;&quot;&gt;+returnPrice(): &lt;/span&gt;&lt;span style=&quot;font-family: Arial, sans-serif; background-color: transparent; font-variant-numeric: normal; font-variant-east-asian: normal; font-variant-alternates: normal; font-variant-position: normal; vertical-align: baseline; white-space-collapse: preserve;&quot;&gt;&lt;span style=&quot;text-wrap: nowrap;&quot; class=&quot;Apple-tab-span&quot;&gt;&#x9;&lt;/span&gt;&lt;/span&gt;&lt;/font&gt;&lt;/p&gt;&lt;p style=&quot;line-height: 1.38; margin-top: 0pt; margin-bottom: 0pt;&quot; dir=&quot;ltr&quot;&gt;&lt;span style=&quot;font-family: Arial, sans-serif; background-color: transparent; font-variant-numeric: normal; font-variant-east-asian: normal; font-variant-alternates: normal; font-variant-position: normal; vertical-align: baseline; white-space-collapse: preserve;&quot;&gt;&lt;font size=&quot;3&quot;&gt;+cancelSeat(int n, string):&amp;nbsp;&lt;/font&gt;&lt;/span&gt;&lt;/p&gt;&lt;p style=&quot;line-height: 1.38; margin-top: 0pt; margin-bottom: 0pt;&quot; dir=&quot;ltr&quot;&gt;&lt;span style=&quot;font-family: Arial, sans-serif; background-color: transparent; font-variant-numeric: normal; font-variant-east-asian: normal; font-variant-alternates: normal; font-variant-position: normal; vertical-align: baseline; white-space-collapse: preserve;&quot;&gt;&lt;font size=&quot;3&quot;&gt;+printseats():&lt;/font&gt;&lt;/span&gt;&lt;/p&gt;&lt;p style=&quot;line-height: 1.38; margin-top: 0pt; margin-bottom: 0pt;&quot; dir=&quot;ltr&quot;&gt;&lt;span style=&quot;font-family: Arial, sans-serif; background-color: transparent; font-variant-numeric: normal; font-variant-east-asian: normal; font-variant-alternates: normal; font-variant-position: normal; vertical-align: baseline; white-space-collapse: preserve;&quot;&gt;&lt;font size=&quot;3&quot;&gt;+flightSize():&lt;/font&gt;&lt;/span&gt;&lt;/p&gt;&lt;div style=&quot;font-size: 14px;&quot;&gt;&lt;span style=&quot;font-size: 11pt; font-family: Arial, sans-serif; background-color: transparent; font-variant-numeric: normal; font-variant-east-asian: normal; font-variant-alternates: normal; font-variant-position: normal; vertical-align: baseline; white-space-collapse: preserve;&quot;&gt;&lt;br&gt;&lt;/span&gt;&lt;/div&gt;&lt;/span&gt;&lt;/font&gt;&lt;/div&gt;" style="text;strokeColor=none;fillColor=none;align=left;verticalAlign=top;spacingLeft=4;spacingRight=4;overflow=hidden;rotatable=0;points=[[0,0.5],[1,0.5]];portConstraint=eastwest;whiteSpace=wrap;html=1;" parent="-MSwqMsgfWWObhUc-Qrm-18" vertex="1">
          <mxGeometry y="232" width="340" height="368" as="geometry" />
        </mxCell>
        <mxCell id="-MSwqMsgfWWObhUc-Qrm-22" value="&lt;font style=&quot;font-size: 18px;&quot;&gt;FlightManager&lt;/font&gt;" style="swimlane;fontStyle=1;align=center;verticalAlign=top;childLayout=stackLayout;horizontal=1;startSize=30;horizontalStack=0;resizeParent=1;resizeParentMax=0;resizeLast=0;collapsible=1;marginBottom=0;whiteSpace=wrap;html=1;" parent="WIyWlLk6GJQsqaUBKTNV-1" vertex="1">
          <mxGeometry x="-30" y="-430" width="310" height="242" as="geometry" />
        </mxCell>
        <mxCell id="-MSwqMsgfWWObhUc-Qrm-23" value="&lt;div&gt;&lt;font style=&quot;font-size: 14px;&quot;&gt;&lt;br&gt;&lt;/font&gt;&lt;/div&gt;&lt;font size=&quot;3&quot; style=&quot;&quot;&gt;+flights_ (vector&amp;lt;Flight&amp;gt;)&lt;/font&gt;" style="text;strokeColor=none;fillColor=none;align=left;verticalAlign=top;spacingLeft=4;spacingRight=4;overflow=hidden;rotatable=0;points=[[0,0.5],[1,0.5]];portConstraint=eastwest;whiteSpace=wrap;html=1;" parent="-MSwqMsgfWWObhUc-Qrm-22" vertex="1">
          <mxGeometry y="30" width="310" height="54" as="geometry" />
        </mxCell>
        <mxCell id="-MSwqMsgfWWObhUc-Qrm-24" value="" style="line;strokeWidth=1;fillColor=none;align=left;verticalAlign=middle;spacingTop=-1;spacingLeft=3;spacingRight=3;rotatable=0;labelPosition=right;points=[];portConstraint=eastwest;strokeColor=inherit;" parent="-MSwqMsgfWWObhUc-Qrm-22" vertex="1">
          <mxGeometry y="84" width="310" height="8" as="geometry" />
        </mxCell>
        <mxCell id="-MSwqMsgfWWObhUc-Qrm-25" value="&lt;font style=&quot;font-size: 14px;&quot;&gt;+&lt;/font&gt;&lt;span id=&quot;docs-internal-guid-a5aec6eb-7fff-8e9c-e4ac-e8639548bfa5&quot;&gt;&lt;span style=&quot;background-color: transparent; font-family: Arial, sans-serif; white-space-collapse: preserve;&quot;&gt;&lt;font size=&quot;3&quot;&gt;FlightManager():&amp;nbsp;&lt;/font&gt;&lt;/span&gt;&lt;p style=&quot;line-height:1.38;margin-top:0pt;margin-bottom:0pt;&quot; dir=&quot;ltr&quot;&gt;&lt;span style=&quot;font-family: Arial, sans-serif; background-color: transparent; font-variant-numeric: normal; font-variant-east-asian: normal; font-variant-alternates: normal; font-variant-position: normal; vertical-align: baseline; white-space-collapse: preserve;&quot;&gt;&lt;font size=&quot;3&quot;&gt;+changeFlight(int codigo, int seat):&amp;nbsp;&lt;/font&gt;&lt;/span&gt;&lt;/p&gt;&lt;p style=&quot;line-height:1.38;margin-top:0pt;margin-bottom:0pt;&quot; dir=&quot;ltr&quot;&gt;&lt;span style=&quot;font-family: Arial, sans-serif; background-color: transparent; font-variant-numeric: normal; font-variant-east-asian: normal; font-variant-alternates: normal; font-variant-position: normal; vertical-align: baseline; white-space-collapse: preserve;&quot;&gt;&lt;font size=&quot;3&quot;&gt;+addFlight(Flight):&lt;/font&gt;&lt;/span&gt;&lt;/p&gt;&lt;p style=&quot;line-height:1.38;margin-top:0pt;margin-bottom:0pt;&quot; dir=&quot;ltr&quot;&gt;&lt;span style=&quot;font-family: Arial, sans-serif; background-color: transparent; font-variant-numeric: normal; font-variant-east-asian: normal; font-variant-alternates: normal; font-variant-position: normal; vertical-align: baseline; white-space-collapse: preserve;&quot;&gt;&lt;font size=&quot;3&quot;&gt;+showFlights():&amp;nbsp;&lt;/font&gt;&lt;/span&gt;&lt;/p&gt;&lt;p style=&quot;line-height:1.38;margin-top:0pt;margin-bottom:0pt;&quot; dir=&quot;ltr&quot;&gt;&lt;span style=&quot;font-family: Arial, sans-serif; background-color: transparent; font-variant-numeric: normal; font-variant-east-asian: normal; font-variant-alternates: normal; font-variant-position: normal; vertical-align: baseline; white-space-collapse: preserve;&quot;&gt;&lt;font size=&quot;3&quot;&gt;+returnFlight(int n):&amp;nbsp;&lt;/font&gt;&lt;/span&gt;&lt;/p&gt;&lt;p style=&quot;line-height:1.38;margin-top:0pt;margin-bottom:0pt;&quot; dir=&quot;ltr&quot;&gt;&lt;span style=&quot;font-family: Arial, sans-serif; background-color: transparent; font-variant-numeric: normal; font-variant-east-asian: normal; font-variant-alternates: normal; font-variant-position: normal; vertical-align: baseline; white-space-collapse: preserve;&quot;&gt;&lt;font size=&quot;3&quot;&gt;+manyFlights():&lt;/font&gt;&lt;/span&gt;&lt;span style=&quot;font-size: 11pt; font-family: Arial, sans-serif; background-color: transparent; font-variant-numeric: normal; font-variant-east-asian: normal; font-variant-alternates: normal; font-variant-position: normal; vertical-align: baseline; white-space-collapse: preserve;&quot;&gt; &lt;/span&gt;&lt;/p&gt;&lt;div&gt;&lt;span style=&quot;font-size: 11pt; font-family: Arial, sans-serif; background-color: transparent; font-variant-numeric: normal; font-variant-east-asian: normal; font-variant-alternates: normal; font-variant-position: normal; vertical-align: baseline; white-space-collapse: preserve;&quot;&gt;&lt;br&gt;&lt;/span&gt;&lt;/div&gt;&lt;/span&gt;" style="text;strokeColor=none;fillColor=none;align=left;verticalAlign=top;spacingLeft=4;spacingRight=4;overflow=hidden;rotatable=0;points=[[0,0.5],[1,0.5]];portConstraint=eastwest;whiteSpace=wrap;html=1;" parent="-MSwqMsgfWWObhUc-Qrm-22" vertex="1">
          <mxGeometry y="92" width="310" height="150" as="geometry" />
        </mxCell>
      </root>
    </mxGraphModel>
  </diagram>
</mxfile>
